:SAMPLES-PER-SECOND 30
:FRAME-RANGE 1-668
:FULLY-SPECIFIED
:DEGREES
543
root  -23.2765 37.8724 28.59 -176.091 -34.8268 179.69
RightUpLeg  -27.3303 10.5397 -7.10704
RightLeg  50.3151 8.8726 10.9672
RightFoot  -11.1332 -0.0883981 6.98982
RightToes  5.38607e-012 1.2921e-014 -6.02303e-014
Spine  0.989538 -3.4783 4.29561
Spine1  7.67549 1.52827 -21.8109
HEad  20.2708 7.60818 1.7942
LeftShoulder1  0.784186 1.30175 -33.3602
LeftArm  -9.19229 -4.4715 -2.01097
LeftForeArm  6.38877 2.58758 -9.7194
LeftHand  -0.0389112 4.95008 4.29051
RightShoulder  -0.488432 6.26946 -15.4887
RightArm  19.2144 -2.92954 -9.16193
RightForeArm  -5.52894 32.4384 7.46981
RightHand  5.71557 18.7708 26.2714
LeftUpLeg  -12.528 4.43972 4.2899
LeftLeg  32.1845 5.21663 3.9166
LeftFoot  -20.3002 -0.532515 -8.3377
LeftToes  -6.11857e-011 5.00151e-011 -2.22593e-011
544
root  -23.4165 38.1528 28.4045 -175.872 -35.4628 179.549
RightUpLeg  -26.1535 10.1427 -7.18628
RightLeg  48.6601 9.19246 10.7185
RightFoot  -10.4441 -0.128114 7.28051
RightToes  5.38607e-012 1.2921e-014 -6.02303e-014
Spine  0.157523 -3.97178 3.60729
Spine1  8.71071 0.376182 -19.0081
HEad  21.1665 11.6219 0.900042
LeftShoulder1  1.38713 -0.371728 -31.9565
LeftArm  -5.47673 -0.703013 -5.1762
LeftForeArm  12.1048 2.53174 -10.848
LeftHand  -0.0376093 3.43623 1.17953
RightShoulder  -0.447845 5.80711 -15.2872
RightArm  15.2139 0.408303 -9.53572
RightForeArm  -8.66185 32.7173 7.71137
RightHand  6.29216 19.6798 27.823
LeftUpLeg  -11.5302 3.94217 4.19351
LeftLeg  30.1929 5.14073 3.60448
LeftFoot  -18.7377 -0.454138 -8.74795
LeftToes  -6.11857e-011 5.00151e-011 -2.22593e-011
545
root  -23.5312 38.5321 28.2684 -175.738 -37.2733 179.479
RightUpLeg  -24.4012 8.52511 -7.08889
RightLeg  46.2724 9.5436 10.2384
RightFoot  -9.35104 -0.195908 7.60376
RightToes  5.38607e-012 1.2921e-014 -6.02303e-014
Spine  -0.719508 -4.92295 2.2494
Spine1  10.1514 -1.5372 -15.0151
HEad  22.1676 15.5751 0.219607
LeftShoulder1  2.7157 -4.80108 -27.6885
LeftArm  0.340077 7.91872 -10.3161
LeftForeArm  17.2005 0.73369 -12.2811
LeftHand  -0.0129271 2.64265 -0.0631997
RightShoulder  -0.311149 4.54641 -14.2351
RightArm  9.02863 6.54192 -9.19535
RightForeArm  -9.73102 30.1034 7.07595
RightHand  6.96749 21.0321 29.1696
LeftUpLeg  -10.6963 3.39365 4.33991
LeftLeg  27.8515 3.92077 2.61509
LeftFoot  -16.2574 -0.297167 -9.17247
LeftToes  -6.11857e-011 5.00151e-011 -2.22593e-011
546
root  -23.6302 39.0254 28.1816 -175.458 -40.0346 179.738
RightUpLeg  -22.6577 5.97859 -6.76771
RightLeg  43.1365 10.0255 9.64755
RightFoot  -7.36805 -0.334463 8.18123
RightToes  5.38607e-012 1.2921e-014 -6.02303e-014
Spine  -2.01363 -6.35864 -0.240482
Spine1  12.3193 -4.53693 -8.917
HEad  21.7697 19.9242 -1.37131
LeftShoulder1  3.43914 -9.05893 -21.7277
LeftArm  6.24373 17.0126 -18.2223
LeftForeArm  23.1099 -1.38456 -13.5799
LeftHand  -0.00359344 2.389 -0.373508
RightShoulder  -0.134933 2.70058 -12.3503
RightArm  2.05513 15.5153 -10.1354
RightForeArm  -8.63954 26.8541 6.22064
RightHand  7.29923 21.7913 29.6739
LeftUpLeg  -10.4728 2.92245 4.82743
LeftLeg  25.2694 1.87796 1.32662
LeftFoot  -12.8076 -0.0446446 -9.45631
LeftToes  -6.11857e-011 5.00151e-011 -2.22593e-011
547
root  -23.7478 39.6227 28.133 -175.179 -43.3197 -179.273
RightUpLeg  -20.8111 3.11316 -5.91971
RightLeg  38.6794 10.4786 8.63131
RightFoot  -4.70566 -0.560116 9.08922
RightToes  5.38607e-012 1.2921e-014 -6.02303e-014
Spine  -3.43507 -8.03223 -3.14325
Spine1  14.3366 -8.37597 -1.32001
HEad  21.643 24.5625 -3.65188
LeftShoulder1  3.47634 -12.3157 -15.7094
LeftArm  12.8447 25.5156 -27.2662
LeftForeArm  26.8881 -5.80005 -13.5429
LeftHand  0.0374134 2.0504 -1.72618
RightShoulder  0.0240462 1.07738 -9.26309
RightArm  -6.42289 25.4569 -13.0251
RightForeArm  -6.02278 23.2294 5.33003
RightHand  7.18034 21.7816 29.2135
LeftUpLeg  -10.878 2.0389 5.7799
LeftLeg  22.3994 -0.106601 0.305149
LeftFoot  -8.46763 0.300032 -9.92449
LeftToes  -6.11857e-011 5.00151e-011 -2.22593e-011
548
root  -23.8522 40.2322 28.1025 -174.696 -46.6529 -177.661
RightUpLeg  -19.6202 0.139171 -4.57161
RightLeg  33.688 10.754 7.39717
RightFoot  -1.43497 -0.871177 9.91527
RightToes  5.38607e-012 1.2921e-014 -6.02303e-014
Spine  -4.78341 -9.54031 -6.04942
Spine1  15.679 -12.4249 7.10324
HEad  21.5103 28.4804 -6.07905
LeftShoulder1  2.84169 -13.7411 -9.53256
LeftArm  24.0103 32.6245 -36.1683
LeftForeArm  20.691 -13.4544 -10.8583
LeftHand  0.104676 1.71381 -3.66749
RightShoulder  0.132836 -0.195293 -5.15777
RightArm  -22.6834 33.6974 -17.0715
RightForeArm  5.26686 20.9608 5.01916
RightHand  6.75726 21.0923 28.2461
LeftUpLeg  -12.1092 0.814037 7.10973
LeftLeg  19.4237 -1.81958 -0.310923
LeftFoot  -3.8283 0.715391 -10.5252
LeftToes  -6.11857e-011 5.00151e-011 -2.22593e-011
549
root  -23.9472 40.7528 28.0774 -174.395 -48.7345 -175.875
RightUpLeg  -18.9459 -1.13274 -3.17595
RightLeg  29.0431 10.5279 6.05036
RightFoot  1.87119 -1.27155 11.0581
RightToes  5.38607e-012 1.2921e-014 -6.02303e-014
Spine  -5.88511 -9.76608 -7.4627
Spine1  15.8771 -14.7563 14.1244
HEad  21.3497 30.3634 -7.88185
LeftShoulder1  1.99419 -14.2806 -3.53983
LeftArm  35.2749 36.6099 -43.269
LeftForeArm  10.2439 -19.4762 -6.83914
LeftHand  0.189481 1.07543 -5.32679
RightShoulder  0.145337 -1.8347 0.650889
RightArm  -38.8133 40.0605 -21.8554
RightForeArm  16.7688 20.7928 4.18264
RightHand  6.07704 19.7033 26.8653
LeftUpLeg  -13.3753 -0.0696487 8.47077
LeftLeg  16.9624 -2.85684 -0.475175
LeftFoot  0.388904 1.19838 -11.6591
LeftToes  -6.11857e-011 5.00151e-011 -2.22593e-011
550
root  -24.038 41.076 28.078 -174.01 -49.4409 -175.201
RightUpLeg  -18.4244 -2.04688 -2.71035
RightLeg  26.0687 10.9482 5.56242
RightFoot  4.07248 -1.55215 11.6397
RightToes  5.38607e-012 1.2921e-014 -6.02303e-014
Spine  -5.79659 -8.93981 -8.03142
Spine1  14.2854 -15.165 19.1881
HEad  22.0749 31.521 -9.84589
LeftShoulder1  1.40375 -14.3302 0.29604
LeftArm  41.0386 38.6407 -44.057
LeftForeArm  8.04791 -24.8873 -4.90734
LeftHand  0.303783 0.418607 -7.21371
RightShoulder  0.141329 -2.3206 5.2669
RightArm  -51.1387 43.2212 -22.354
RightForeArm  27.7675 22.5603 3.44761
RightHand  5.38355 18.3721 25.1841
LeftUpLeg  -14.0419 -1.41554 8.98938
LeftLeg  15.6374 -2.30687 -0.169922
LeftFoot  3.22751 1.58328 -12.501
LeftToes  -6.11857e-011 5.00151e-011 -2.22593e-011
